<?xml version="1.0" standalone="no"?><!DOCTYPE svg PUBLIC "-//W3C//DTD SVG 1.1//EN" "http://www.w3.org/Graphics/SVG/1.1/DTD/svg11.dtd"><svg t="1758193033889" class="icon" viewBox="0 0 1024 1024" version="1.1" xmlns="http://www.w3.org/2000/svg" p-id="5626" xmlns:xlink="http://www.w3.org/1999/xlink" width="200" height="200"><path d="M965.272998 299.294332v423.659711a87.698027 87.698027 0 0 1-43.790626 75.903752L554.458538 1009.870225a87.581252 87.581252 0 0 1-87.581252 0L99.736677 798.273919a87.698027 87.698027 0 0 1-43.673851-75.319876V299.294332a87.698027 87.698027 0 0 1 43.790626-76.020527L466.760511 11.6775a87.581252 87.581252 0 0 1 87.581252 0l367.140609 211.596305a87.698027 87.698027 0 0 1 43.790626 76.020527z m0 0" fill="#5C6BC0" p-id="5627"></path><path d="M965.272998 510.773862V299.294332a87.230927 87.230927 0 0 0-11.6775-43.907401L67.740326 766.160794a87.347702 87.347702 0 0 0 32.113126 32.113125l366.907059 211.596306a87.581252 87.581252 0 0 0 87.581252 0l367.023834-211.596306a87.581252 87.581252 0 0 0 43.907401-75.319876V510.773862z m0 0" fill="#283593" p-id="5628"></path><path d="M510.551137 360.951534a149.588779 149.588779 0 1 1-149.472004 149.472003 149.705554 149.705554 0 0 1 149.472004-149.472003m0-155.661079a305.249857 305.249857 0 1 0 305.249858 305.483407 305.133082 305.133082 0 0 0-305.249858-305.133082z m0 0" fill="#FFFFFF" p-id="5629"></path><path d="M953.595498 766.160794a87.114152 87.114152 0 0 0 11.6775-43.790626V299.294332a87.230927 87.230927 0 0 0-11.6775-43.907401L510.551137 510.773862z m0 0" fill="#3949AB" p-id="5630"></path></svg>